<svg xmlns="http://www.w3.org/2000/svg" viewBox="0 0 1920 1080" preserveAspectRatio="xMidYMid slice" width="100%" height="100%">
  <defs>
    <!-- 發光濾鏡 -->
    <filter id="glow-cyan" x="-20%" y="-20%" width="140%" height="140%">
      <feGaussianBlur stdDeviation="8" result="blur" />
      <feComposite in="SourceGraphic" in2="blur" operator="over" />
    </filter>
    <filter id="glow-amber" x="-20%" y="-20%" width="140%" height="140%">
      <feGaussianBlur stdDeviation="6" result="blur" />
      <feComposite in="SourceGraphic" in2="blur" operator="over" />
    </filter>
    
    <!-- 背景網格微圖案 (高度 40 能被 1080 整除，確保無縫循環) -->
    <pattern id="grid" width="40" height="40" patternUnits="userSpaceOnUse">
      <path d="M 40 0 L 0 0 0 40" fill="none" stroke="#ffffff" stroke-opacity="0.03" stroke-width="1" />
    </pattern>

    <!-- 45度斜線填充圖案 (警告線風格) -->
    <pattern id="hatch-amber" width="12" height="12" patternTransform="rotate(45)" patternUnits="userSpaceOnUse">
      <line x1="0" y1="0" x2="0" y2="12" stroke="#F59E0B" stroke-width="4" opacity="0.8"/>
    </pattern>
    <pattern id="hatch-dark" width="10" height="10" patternTransform="rotate(45)" patternUnits="userSpaceOnUse">
      <line x1="0" y1="0" x2="0" y2="10" stroke="#1F2937" stroke-width="3" />
    </pattern>
  </defs>

  <!-- 1. 最底層背景 -->
  <rect width="100%" height="100%" fill="#0B0F19" />
  <rect width="100%" height="100%" fill="url(#grid)" />

  <!-- 2. 中央擴充細節 (專為手機版裁切後保留視覺中心設計) -->
  <g id="center-watermark" opacity="0.15">
    <polygon points="960,240 1220,390 1220,690 960,840 700,690 700,390" fill="none" stroke="#00F0FF" stroke-width="2" />
    <polygon points="960,190 1263,365 1263,715 960,890 657,715 657,365" fill="none" stroke="#4B5563" stroke-width="1" />
    <circle cx="960" cy="540" r="450" fill="none" stroke="#1F2937" stroke-width="4" stroke-dasharray="20 40" />
    <circle cx="960" cy="540" r="300" fill="none" stroke="#1F2937" stroke-width="1" />
  </g>

  <!-- 3. 右側大型機甲面板 (經過精確計算，首尾 Y 座標斜率完美無縫對接) -->
  <g id="right-panels">
    <!-- 底層暗面板 -->
    <path d="M 1250,0 L 1400,150 L 1400,350 L 1150,600 L 1150,980 L 1250,1080 L 1920,1080 L 1920,0 Z" fill="#111827" stroke="#1F2937" stroke-width="2"/>
    
    <!-- 中層面板 -->
    <path d="M 1300,0 L 1450,150 L 1450,350 L 1200,600 L 1200,980 L 1300,1080 L 1920,1080 L 1920,0 Z" fill="#161E2E" />
    
    <!-- 頂層裝飾區塊 (移至內部避免截斷) -->
    <polygon points="1650,200 1920,200 1920,470" fill="url(#hatch-dark)" opacity="0.5"/>
    <polygon points="1650,800 1920,800 1920,1070" fill="url(#hatch-dark)" opacity="0.2"/>
    
    <!-- 青色粗線條發光主軸 (無縫循環) -->
    <path d="M 1280,0 L 1430,150 L 1430,350 L 1180,600 L 1180,980 L 1280,1080" fill="none" stroke="#00F0FF" stroke-width="8" filter="url(#glow-cyan)"/>
    
    <!-- 伴隨的細線條 (無縫循環) -->
    <path d="M 1320,0 L 1470,150 L 1470,350 L 1220,600 L 1220,980 L 1320,1080" fill="none" stroke="#00F0FF" stroke-width="2" opacity="0.6"/>
  </g>

  <!-- 4. 左上角懸浮科技模塊 (移離上邊緣，確保循環拼接不斷裂) -->
  <g id="top-left-panels">
    <path d="M 0,100 L 600,100 L 450,250 L 150,250 L 0,400 Z" fill="#111827" stroke="#1F2937" stroke-width="2"/>
    <!-- 橘色高亮邊緣 -->
    <path d="M 600,100 L 450,250 L 150,250 L 0,400" fill="none" stroke="#F59E0B" stroke-width="4" filter="url(#glow-amber)"/>
    
    <!-- 斜線警告裝飾區 -->
    <polygon points="0,250 130,250 0,380" fill="url(#hatch-amber)" opacity="0.3"/>
    
    <!-- 數據走線 -->
    <path d="M 250,250 L 250,350 L 400,500 L 750,500 L 850,600 L 850,750" fill="none" stroke="#4B5563" stroke-width="2" />
    <!-- 走線節點 -->
    <circle cx="250" cy="350" r="4" fill="#00F0FF" />
    <circle cx="850" cy="750" r="4" fill="#4B5563" />
    <circle cx="850" cy="750" r="2" fill="#0B0F19" />
  </g>

  <!-- 5. 左下角科技區塊 (移離下邊緣) -->
  <g id="bottom-left-panels">
    <path d="M 0,650 L 150,650 L 300,800 L 300,980 L 0,980 Z" fill="#111827" />
    <!-- 紫色/青色點綴 -->
    <path d="M 0,630 L 160,630 L 320,790 L 320,980" fill="none" stroke="#8B5CF6" stroke-width="3" opacity="0.7"/>
    <path d="M 0,670 L 140,670 L 280,810 L 280,980" fill="none" stroke="#00F0FF" stroke-width="1" opacity="0.5"/>
  </g>

  <!-- 6. 畫面中央粗曠幾何折線 (橫跨畫面，增加手機版細節) -->
  <g id="center-dynamic-lines">
    <path d="M 300,900 L 600,600 L 950,600 L 1150,400 L 1150,300" fill="none" stroke="#1F2937" stroke-width="40" stroke-linejoin="miter" opacity="0.4"/>
    <path d="M 300,900 L 600,600 L 950,600 L 1150,400 L 1150,300" fill="none" stroke="#F59E0B" stroke-width="4" stroke-linejoin="miter" />
    <circle cx="1150" cy="300" r="8" fill="#F59E0B" filter="url(#glow-amber)" />
  </g>

  <!-- 7. 介面細節元素 (UI/HUD Elements) -->
  <g id="hud-details">
    <!-- 準星 1 -->
    <g stroke="#4B5563" stroke-width="2" transform="translate(150, 450)">
      <line x1="-15" y1="0" x2="15" y2="0"/>
      <line x1="0" y1="-15" x2="0" y2="15"/>
      <circle cx="0" cy="0" r="8" fill="none" />
    </g>
    
    <!-- 準星 2 -->
    <g stroke="#4B5563" stroke-width="2" transform="translate(1050, 250)">
      <line x1="-10" y1="0" x2="-3" y2="0"/><line x1="3" y1="0" x2="10" y2="0"/>
      <line x1="0" y1="-10" x2="0" y2="-3"/><line x1="0" y1="3" x2="0" y2="10"/>
    </g>

    <!-- 狀態列區塊 -->
    <g transform="translate(1650, 120)">
      <rect x="0" y="0" width="140" height="24" fill="#1F2937" stroke="#374151" />
      <text x="10" y="16" fill="#00F0FF" font-family="Courier New, monospace" font-size="12" font-weight="bold">SYS.INIT_OK</text>
      <!-- 進度條 -->
      <rect x="0" y="28" width="140" height="4" fill="#374151" />
      <rect x="0" y="28" width="95" height="4" fill="#00F0FF" filter="url(#glow-cyan)"/>
    </g>

    <!-- 數據讀數 -->
    <g transform="translate(1650, 190)">
      <text x="0" y="0" fill="#9CA3AF" font-family="Courier New, monospace" font-size="10">MEM: 0x8F4A2</text>
      <text x="0" y="16" fill="#9CA3AF" font-family="Courier New, monospace" font-size="10">CPU: 42.8% OP</text>
      <text x="0" y="32" fill="#F59E0B" font-family="Courier New, monospace" font-size="10">NET: SECURE</text>
    </g>

    <!-- 裝飾性小方塊點陣 -->
    <g transform="translate(1400, 400)" fill="#00F0FF">
      <rect x="0" y="0" width="6" height="6" />
      <rect x="10" y="0" width="6" height="6" fill="#4B5563" />
      <rect x="20" y="0" width="6" height="6" />
      <rect x="0" y="10" width="6" height="6" fill="#4B5563" />
      <rect x="10" y="10" width="6" height="6" />
      <rect x="20" y="10" width="6" height="6" />
    </g>

    <!-- 底部終端機文字 -->
    <g transform="translate(40, 1000)">
      <text x="0" y="0" fill="#6B7280" font-family="Courier New, monospace" font-size="14" letter-spacing="2">PORTFOLIO_V2.0 // STATUS: ONLINE // <tspan fill="#00F0FF">AWAITING INPUT_</tspan></text>
      <text x="0" y="20" fill="#4B5563" font-family="Courier New, monospace" font-size="10" letter-spacing="1">ENCRYPTION: 256-BIT RSA | CONNECTION: SECURE | ROLE: ENGINEER</text>
    </g>
  </g>
</svg>